<svg version="1.1" id="Layer_1" xmlns="http://www.w3.org/2000/svg" xmlns:xlink="http://www.w3.org/1999/xlink" x="0px" y="0px"
	 width="100%" viewBox="0 0 672 1024" enable-background="new 0 0 672 1024" xml:space="preserve">
<path fill="#000000" opacity="1.000000" stroke="none" 
	d="
M153.675659,620.365479 
	C107.079567,588.585327 71.890678,547.202576 46.315281,497.615204 
	C29.458515,464.932129 19.175842,430.125610 14.510155,393.579559 
	C11.442908,369.553986 10.785194,345.474091 10.799294,321.319519 
	C10.839374,252.657074 10.797237,183.994598 10.819891,115.332138 
	C10.823934,103.079796 11.713476,102.300903 23.850233,102.352745 
	C57.648537,102.497124 90.894623,106.799866 123.547272,115.559860 
	C142.272141,120.583328 160.143494,127.879829 177.655792,136.099838 
	C189.440506,141.631424 190.777130,141.546600 199.414749,131.701004 
	C236.773712,89.117348 280.626373,54.372635 328.388275,24.277348 
	C335.078217,20.061945 340.911896,19.191391 348.143738,23.764589 
	C392.133698,51.582638 432.889221,83.335358 468.692017,121.236259 
	C473.264221,126.076424 477.661285,131.102219 481.856873,136.271393 
	C484.977997,140.116714 488.152649,140.830048 492.718536,138.707397 
	C513.739380,128.934921 535.279907,120.514938 557.715454,114.500954 
	C580.458374,108.404572 603.578125,104.940620 627.084045,103.523521 
	C636.737610,102.941528 646.381531,102.773415 656.031677,102.501419 
	C664.375183,102.266251 666.309265,104.083397 666.803528,112.463379 
	C666.989624,115.620163 666.910217,118.794037 666.910522,121.960121 
	C666.915771,181.956406 666.970093,241.952774 666.883667,301.948944 
	C666.855530,321.442230 666.819397,340.947296 666.157959,360.425659 
	C664.207520,417.860382 648.467041,471.263428 618.319824,520.281311 
	C575.363159,590.126831 514.493713,637.338684 436.816406,662.925720 
	C415.118164,670.073120 392.709137,674.408752 369.893524,676.378418 
	C360.662720,677.175354 359.316956,678.643860 359.318268,687.736084 
	C359.324799,733.899841 359.334137,780.063660 359.385895,826.227356 
	C359.388397,828.453064 358.723541,830.915344 360.951324,832.989380 
	C364.853027,830.353577 367.738831,826.689941 370.720856,823.222046 
	C405.474335,782.806885 449.614471,759.749756 501.993896,751.541138 
	C515.877502,749.365356 529.753479,748.339294 543.764893,748.799805 
	C551.749023,749.062134 553.386536,750.703430 553.310669,758.702637 
	C553.088074,782.177917 554.375000,805.697815 551.436768,829.097839 
	C547.192688,862.897827 535.713928,894.119751 516.668030,922.291687 
	C482.306335,973.118347 433.912415,1002.636780 374.186279,1014.365295 
	C359.769226,1017.196350 345.118591,1017.851135 330.468140,1018.105164 
	C320.264832,1018.282104 317.918335,1016.463318 317.484436,1006.245117 
	C316.998077,994.792236 317.526428,983.298096 317.536621,971.821838 
	C317.588043,913.992126 317.597412,856.162476 317.680481,798.332825 
	C317.687500,793.442322 315.846008,791.191895 310.671112,790.871521 
	C294.680267,789.881409 278.688782,790.721313 262.702179,790.410339 
	C254.932419,790.259155 253.728531,789.114136 253.650848,781.417908 
	C253.575226,773.925110 253.826492,766.438599 253.271576,758.937073 
	C252.724747,751.544800 255.370148,748.935669 262.885040,748.887756 
	C278.216888,748.789978 293.549805,748.868408 308.881927,748.797302 
	C316.378052,748.762573 317.653015,747.456970 317.663422,740.074036 
	C317.688538,722.241821 317.684479,704.409546 317.666412,686.577332 
	C317.658264,678.540588 316.331940,677.108459 308.210907,676.368896 
	C290.938049,674.795898 273.942932,671.605469 257.144257,667.392212 
	C219.918961,658.055725 185.685593,642.076538 153.675659,620.365479 
M164.604370,175.959854 
	C153.985321,170.723770 143.100098,166.117111 131.911392,162.243881 
	C109.663795,154.542389 86.914627,149.129410 63.448818,146.673904 
	C54.937675,145.783264 53.327690,146.676819 53.320770,155.263672 
	C53.269070,219.423477 53.250000,283.583313 53.205097,347.743134 
	C53.192020,366.426941 54.678185,384.952454 58.207577,403.334351 
	C68.794998,458.476166 93.052628,506.925781 132.081985,547.040344 
	C194.984711,611.692017 272.152496,640.675903 362.289246,634.803589 
	C391.322083,632.912170 419.133942,625.721069 445.932343,614.796509 
	C496.898743,594.019775 538.360474,560.941895 570.503723,516.322083 
	C605.307312,468.009186 622.974121,413.712616 624.493774,354.425873 
	C625.539368,313.632019 625.003418,272.796265 625.063904,231.979065 
	C625.102966,205.648804 624.960632,179.318176 624.856750,152.987885 
	C624.833984,147.213684 622.792969,144.938828 618.025024,145.686630 
	C605.378235,147.670166 592.616943,148.980698 580.131775,151.938705 
	C548.450745,159.444565 518.806213,172.046539 490.482910,187.907639 
	C456.627258,206.866882 426.800537,230.963470 400.244690,259.162231 
	C379.517822,281.171356 360.917480,304.816132 345.028015,330.602875 
	C339.407715,339.723938 337.557343,339.396484 331.905518,330.249146 
	C290.645569,263.470642 235.659576,211.543289 164.604370,175.959854 
M404.099670,197.579269 
	C415.641663,187.734100 427.603088,178.430786 440.055542,169.762756 
	C449.607513,163.113739 449.458038,163.252563 441.570496,154.393341 
	C413.455200,122.814476 380.603546,96.792717 346.110748,72.682770 
	C339.530396,68.083183 337.864594,68.154205 331.289001,72.583603 
	C309.147797,87.498169 288.241913,104.021858 268.271606,121.698128 
	C255.297607,133.181763 242.819336,145.208069 232.296585,159.104355 
	C229.712372,162.517090 229.859146,164.785797 233.487183,167.286133 
	C261.978271,186.921280 288.287720,209.135391 311.892822,234.466705 
	C319.836151,242.990936 327.476746,251.799713 335.164185,260.558746 
	C338.034271,263.828918 340.141632,263.849121 343.016052,260.279449 
	C361.242310,237.644775 381.359894,216.822906 404.099670,197.579269 
M503.201202,794.024780 
	C493.737488,795.242371 484.639374,797.887329 475.715118,801.163147 
	C417.391846,822.571838 380.739136,863.714294 364.728973,923.469421 
	C361.005554,937.366455 359.729828,951.629700 360.345551,966.019958 
	C360.600250,971.971680 361.837982,973.253662 366.481842,972.511841 
	C390.126617,968.734375 412.550568,961.350403 432.261841,947.556824 
	C483.505219,911.697571 511.053162,863.034180 510.665680,799.695923 
	C510.627289,793.421631 509.989929,792.987305 503.201202,794.024780 
z"/>
</svg>